<svg width="74" height="54" viewBox="0 0 74 54" fill="none" xmlns="http://www.w3.org/2000/svg">
<path d="M53.3333 0.765869H20C8.96667 0.765869 0 9.73254 0 20.7659C0 31.7992 8.96667 40.7659 20 40.7659H53.3333C64.3667 40.7659 73.3333 31.7992 73.3333 20.7659C73.3333 9.73254 64.3667 0.765869 53.3333 0.765869ZM53.3333 34.0992H20C12.6333 34.0992 6.66667 28.1325 6.66667 20.7659C6.66667 13.3992 12.6333 7.43254 20 7.43254H53.3333C60.7 7.43254 66.6667 13.3992 66.6667 20.7659C66.6667 28.1325 60.7 34.0992 53.3333 34.0992ZM20 10.7659C14.4667 10.7659 10 15.2325 10 20.7659C10 26.2992 14.4667 30.7659 20 30.7659C25.5333 30.7659 30 26.2992 30 20.7659C30 15.2325 25.5333 10.7659 20 10.7659Z" fill="#003846"/>
</svg>
