<svg width="30" height="26" viewBox="0 0 30 26" fill="none" xmlns="http://www.w3.org/2000/svg">
<path d="M45 0.617188H5C2.25 0.617188 0.025 2.86719 0.025 5.61719L0 35.6172C0 38.3672 2.25 40.6172 5 40.6172H45C47.75 40.6172 50 38.3672 50 35.6172V5.61719C50 2.86719 47.75 0.617188 45 0.617188ZM44 11.2422L26.325 22.2922C25.525 22.7922 24.475 22.7922 23.675 22.2922L6 11.2422C5.74932 11.1015 5.5298 10.9113 5.35472 10.6833C5.17965 10.4553 5.05266 10.1941 4.98144 9.91562C4.91022 9.6371 4.89626 9.34703 4.94039 9.06295C4.98453 8.77888 5.08584 8.50672 5.2382 8.26294C5.39057 8.01916 5.59081 7.80883 5.82682 7.64468C6.06282 7.48052 6.32968 7.36597 6.61124 7.30793C6.8928 7.2499 7.18321 7.2496 7.46489 7.30706C7.74657 7.36451 8.01366 7.47852 8.25 7.64219L25 18.1172L41.75 7.64219C41.9863 7.47852 42.2534 7.36451 42.5351 7.30706C42.8168 7.2496 43.1072 7.2499 43.3888 7.30793C43.6703 7.36597 43.9372 7.48052 44.1732 7.64468C44.4092 7.80883 44.6094 8.01916 44.7618 8.26294C44.9142 8.50672 45.0155 8.77888 45.0596 9.06295C45.1037 9.34703 45.0898 9.6371 45.0186 9.91562C44.9473 10.1941 44.8204 10.4553 44.6453 10.6833C44.4702 10.9113 44.2507 11.1015 44 11.2422Z" fill="#003846"/>
</svg>
